<?xml version="1.0" encoding="UTF-8" standalone="no"?>
<svg
   xmlns:dc="http://purl.org/dc/elements/1.1/"
   xmlns:cc="http://creativecommons.org/ns#"
   xmlns:rdf="http://www.w3.org/1999/02/22-rdf-syntax-ns#"
   xmlns:svg="http://www.w3.org/2000/svg"
   xmlns="http://www.w3.org/2000/svg"
   version="1.1"
   id="svg44"
   width="400"
   height="400"
   viewBox="0 0 400 400">
  <metadata
     id="metadata50">
    <rdf:RDF>
      <cc:Work
         rdf:about="">
        <dc:format>image/svg+xml</dc:format>
        <dc:type
           rdf:resource="http://purl.org/dc/dcmitype/StillImage" />
        <dc:title></dc:title>
      </cc:Work>
    </rdf:RDF>
  </metadata>
  <defs
     id="defs48" />
  <g
     id="g52">
    <g
       id="g290"
       transform="translate(-13.656285,-6.2675722)">
      <path
         style="fill:#76c2e3;stroke-width:1.33333"
         d="M 171.46277,361.85783 C 104.67749,349.79735 51.078263,295.80329 39.397268,228.81951 c -2.643183,-15.15714 -2.643183,-41.14855 0,-56.30568 C 51.169597,105.00629 105.00629,51.169597 172.51383,39.397268 c 15.15713,-2.643183 41.14854,-2.643183 56.30568,0 15.31846,2.671319 32.90138,8.606761 46.66866,15.753881 l 10.97052,5.69522 7.57671,-5.093122 c 10.43612,-7.015263 19.87097,-9.550407 32.76507,-8.803979 19.08217,1.104651 35.32748,12.170696 44.13704,30.065464 4.0876,8.303096 4.39582,9.868036 4.39582,22.318601 0,12.450567 -0.30822,14.015507 -4.39582,22.318597 -2.41771,4.91106 -7.12979,11.66315 -10.47128,15.00464 l -6.07544,6.07546 3.43777,12.30065 c 1.89077,6.76536 4.04831,16.20065 4.79453,20.96732 2.00892,12.83245 1.66418,39.33673 -0.68702,52.81951 -11.77234,67.50753 -65.60903,121.34422 -133.11656,133.11656 -14.64598,2.55404 -42.99452,2.51537 -57.35674,-0.0783 z m -16.7961,-67.19116 V 288 H 144 133.33333 l 0.0348,-71.66667 0.0348,-71.66666 28.84964,65.05797 28.84964,65.05797 7.8494,-0.3913 7.8494,-0.39131 28.05027,-63.33333 c 15.42764,-34.83334 28.29741,-63.58334 28.59949,-63.8889 C 263.75285,146.47223 264,178.12223 264,217.11111 V 288 h -10.66667 -10.66666 v 6.66667 6.66666 h 33.40638 33.40639 L 309.07305,295 l -0.40638,-6.33333 -11,-0.38726 -11,-0.38725 v -71.75049 c 0,-39.46278 0.38548,-75.43851 0.85661,-79.94608 L 288.37988,128 h 10.47673 10.47672 v -6.66667 -6.66666 l -23,0.0258 -23,0.0258 -28.52117,64.5328 c -15.68665,35.49304 -28.93276,65.19873 -29.4358,66.01268 -0.50304,0.81393 -14.06851,-28.22272 -30.14549,-64.5259 L 146,114.73205 l -24.33333,-0.0327 -24.333337,-0.0327 v 6.61274 6.61274 l 10.999997,0.38726 11,0.38726 0.34381,79.61257 0.3438,79.61257 -11.01047,0.38743 L 98,288.66667 97.593612,295 l -0.406388,6.33333 h 28.739726 28.73972 z"
         id="path294" />
      <path
         style="fill:#a691dd;stroke-width:1.33333"
         d="M 171.46277,361.85783 C 104.67749,349.79735 51.078263,295.80329 39.397268,228.81951 c -2.643183,-15.15714 -2.643183,-41.14855 0,-56.30568 C 51.169597,105.00629 105.00629,51.169597 172.51383,39.397268 c 24.87092,-4.337124 55.9633,-2.016023 79.75086,5.953545 11.58672,3.881907 33.06864,13.94832 33.06864,15.495942 0,0.449346 -2.40552,4.419284 -5.3456,8.822082 -7.44805,11.153548 -9.83196,20.167211 -8.9734,33.928823 l 0.69058,11.06901 -4.18579,0.0258 -4.18579,0.0258 -28.52117,64.5328 c -15.68665,35.49304 -28.93276,65.19873 -29.4358,66.01268 -0.50304,0.81393 -14.06851,-28.22272 -30.14549,-64.5259 L 146,114.73205 l -24.33333,-0.0327 -24.333337,-0.0327 v 6.61274 6.61274 l 10.999997,0.38726 11,0.38726 0.34381,79.61257 0.3438,79.61257 -11.01047,0.38743 L 98,288.66667 97.593612,295 l -0.406388,6.33333 h 28.739726 28.73972 V 294.66667 288 H 144 133.33333 l 0.0348,-71.66667 0.0348,-71.66666 28.84964,65.05797 28.84964,65.05797 7.8494,-0.3913 7.8494,-0.39131 28.05027,-63.33333 c 15.42764,-34.83334 28.29741,-63.58334 28.59949,-63.8889 C 263.75285,146.47223 264,178.12223 264,217.11111 V 288 h -10.66667 -10.66666 v 6.66667 6.66666 h 33.40638 33.40639 L 309.07305,295 l -0.40638,-6.33333 -11,-0.38726 -11,-0.38725 v -74.61275 c 0,-41.03701 0.2397,-74.61274 0.53268,-74.61274 0.29297,0 3.65528,2.10134 7.47177,4.66966 9.74393,6.55718 19.46439,9.11423 31.90864,8.39384 9.12719,-0.52836 16.32244,-2.85942 26.88015,-8.70842 1.1366,-0.62968 6.44722,17.87888 8.60946,30.00558 2.47408,13.87572 2.40876,41.21486 -0.13333,55.79218 -11.77233,67.50753 -65.60903,121.34422 -133.11656,133.11656 -14.64597,2.55404 -42.99452,2.51537 -57.35673,-0.0783 z"
         id="path292" />
    </g>
    <path
       style="fill:#ffffff;stroke-width:0.4884"
       d="m 83.918828,292.42979 c 0.08981,-1.27594 0.292939,-3.98972 0.451406,-6.03061 l 0.28812,-3.71071 6.925008,-0.31681 c 3.808755,-0.17424 8.752548,-0.31761 10.986208,-0.31859 l 4.06119,-0.002 -0.34119,-79.73138 c -0.18766,-43.85226 -0.43424,-79.83541 -0.54797,-79.96255 -0.16573,-0.18529 -12.183033,-0.75482 -20.053743,-0.95039 l -1.587301,-0.0394 v -6.3492 -6.34921 l 24.053724,0.0113 24.05372,0.0113 12.66269,28.68222 c 31.78438,71.99472 45.59514,101.97764 46.78962,101.57948 0.55229,-0.18409 11.76582,-25.16973 41.75797,-93.04377 l 16.45584,-37.24054 h 22.85192 22.85193 v 6.34921 6.3492 h -10.50061 c -5.77534,0 -10.51013,0.16484 -10.52175,0.3663 -0.0116,0.20147 -0.34513,2.89377 -0.74112,5.98291 -0.59339,4.6291 -0.77429,18.69032 -1.02886,79.97558 l -0.30889,74.35897 4.1025,0.002 c 2.25638,9.7e-4 7.23882,0.14526 11.07209,0.32062 8.0738,0.36934 7.21994,-0.45283 7.65386,7.3699 l 0.27768,5.0061 H 262.36919 229.1555 v -6.34921 -6.3492 h 10.74481 10.74481 l -9.7e-4,-56.53236 c -9.8e-4,-54.64356 -0.33489,-85.12119 -0.93249,-85.08764 -0.15819,0.009 -0.91138,1.38251 -1.67376,3.05251 -1.64966,3.61358 -50.72695,114.12128 -53.18623,119.75983 -1.98443,4.54981 -1.50298,4.34758 -11.36169,4.77234 l -5.86081,0.2525 -28.77547,-64.90346 c -15.82643,-35.69707 -28.9583,-64.90363 -29.18185,-64.90363 -0.22355,0 -0.40646,32.30769 -0.40646,71.79487 v 71.79487 h 10.74481 10.74481 v 6.34921 6.3492 H 112.25528 83.755542 Z"
       id="path298" />
    <path
       style="fill:#ffffff;stroke-width:0.4884"
       d="m 83.871581,292.42979 c 0.117372,-1.27594 0.342412,-3.98972 0.500088,-6.03061 l 0.286685,-3.71071 6.925008,-0.31681 c 3.808755,-0.17424 8.752018,-0.31761 10.985038,-0.31859 l 4.06003,-0.002 -0.34025,-79.73138 c -0.18713,-43.85226 -0.42374,-79.82596 -0.5258,-79.94155 -0.15144,-0.17153 -13.834035,-0.83639 -20.074523,-0.97546 l -1.587301,-0.0354 v -6.3492 -6.34921 h 24.060274 24.06028 l 2.61869,5.9829 c 28.71968,65.6155 55.49737,124.42003 56.65687,124.42003 0.21991,0 1.44583,-2.25275 2.72428,-5.00611 2.31997,-4.99646 28.96324,-64.98316 46.42184,-104.5177 l 9.22031,-20.87912 h 22.85743 22.85744 v 6.34921 6.3492 H 285.10728 274.6366 l -0.283,2.0757 c -0.15566,1.14164 -0.50605,4.05373 -0.77866,6.47131 -0.29912,2.65263 -0.61667,33.68718 -0.80083,78.26618 l -0.30517,73.87057 4.1064,0.002 c 2.25853,9.7e-4 7.24272,0.14526 11.07599,0.32062 8.0722,0.36927 7.21279,-0.45593 7.67542,7.3699 l 0.29594,5.0061 h -33.2336 -33.23359 v -6.34921 -6.3492 h 10.74481 10.74481 l -0.0652,-59.46276 c -0.0358,-32.70469 -0.20576,-64.62776 -0.37759,-70.94034 l -0.31241,-11.47741 -2.60187,5.37241 c -2.02295,4.17702 -44.14672,98.73487 -52.43331,117.70027 -1.9855,4.5442 -1.46828,4.32605 -11.36471,4.79329 l -5.86081,0.2767 -3.93454,-8.88208 c -2.164,-4.88514 -15.13103,-34.12495 -28.81563,-64.97734 l -24.88109,-56.09527 -0.30893,4.81322 c -0.16992,2.64726 -0.33475,34.97804 -0.3663,71.84618 l -0.0574,67.03296 h 10.74481 10.74481 v 6.34921 6.3492 H 112.20659 83.658177 Z"
       id="path300" />
  </g>
</svg>
